<svg width="88" height="63" viewBox="0 0 88 63" fill="none" xmlns="http://www.w3.org/2000/svg">
<path d="M87.7144 33.8413H79.748V62.7382H87.7144V33.8413Z" fill="#2C2C32"/>
<path d="M87.7192 54.7674H68.4023V62.7338H87.7192V54.7674Z" fill="#2C2C32"/>
<path d="M7.97024 33.8413H0.00390625V62.7382H7.97024V33.8413Z" fill="#2C2C32"/>
<path d="M19.3168 54.7674H0V62.7338H19.3168V54.7674Z" fill="#2C2C32"/>
<path d="M49.4824 20.9709V39.8317H38.2347V21.1497L30.2773 25.3832V62.7383H38.2347V47.0783H49.4824V62.7383H57.4442V25.2044L49.4824 20.9709Z" fill="#FCDB5C"/>
<path d="M87.7182 23.2687L60.9849 9.05713L52.5 13.5678L75.6435 25.8749H87.7182V23.2687Z" fill="#2C2C32"/>
<path d="M44.1054 0L0 23.452V25.8749H12.4189L52.5903 4.51069L44.1054 0Z" fill="#2C2C32"/>
</svg>
