<svg width="26" height="16" viewBox="0 0 26 16" fill="none" xmlns="http://www.w3.org/2000/svg">
<path d="M12.44 7.968C12.44 9.024 12.288 10 11.984 10.896C11.68 11.776 11.256 12.544 10.712 13.2C10.168 13.84 9.52 14.344 8.768 14.712C8.032 15.064 7.232 15.24 6.368 15.24C5.488 15.24 4.672 15.064 3.92 14.712C3.184 14.344 2.544 13.84 2 13.2C1.472 12.544 1.056 11.776 0.752 10.896C0.448 10 0.296 9.024 0.296 7.968C0.296 6.912 0.448 5.944 0.752 5.064C1.056 4.168 1.472 3.4 2 2.76C2.544 2.104 3.184 1.592 3.92 1.224C4.672 0.856 5.488 0.672 6.368 0.672C7.232 0.672 8.032 0.856 8.768 1.224C9.52 1.592 10.168 2.104 10.712 2.76C11.256 3.4 11.68 4.168 11.984 5.064C12.288 5.944 12.44 6.912 12.44 7.968ZM10.304 7.968C10.304 7.184 10.208 6.464 10.016 5.808C9.824 5.152 9.552 4.592 9.2 4.128C8.848 3.648 8.432 3.28 7.952 3.024C7.472 2.768 6.944 2.64 6.368 2.64C5.776 2.64 5.232 2.768 4.736 3.024C4.256 3.28 3.84 3.648 3.488 4.128C3.152 4.592 2.888 5.152 2.696 5.808C2.504 6.464 2.408 7.184 2.408 7.968C2.408 8.768 2.504 9.496 2.696 10.152C2.888 10.792 3.152 11.344 3.488 11.808C3.84 12.272 4.256 12.632 4.736 12.888C5.232 13.144 5.776 13.272 6.368 13.272C6.944 13.272 7.472 13.144 7.952 12.888C8.432 12.632 8.848 12.272 9.2 11.808C9.552 11.344 9.824 10.792 10.016 10.152C10.208 9.496 10.304 8.768 10.304 7.968ZM14.7742 15C14.7742 14.36 14.8222 13.76 14.9182 13.2C15.0302 12.64 15.2302 12.104 15.5182 11.592C15.8062 11.08 16.1982 10.592 16.6942 10.128C17.2062 9.664 17.8702 9.2 18.6862 8.736C19.1662 8.48 19.6542 8.232 20.1502 7.992C20.6462 7.736 21.0942 7.472 21.4942 7.2C21.9102 6.912 22.2462 6.608 22.5022 6.288C22.7742 5.968 22.9102 5.592 22.9102 5.16C22.9102 4.888 22.8462 4.616 22.7182 4.344C22.5902 4.072 22.4062 3.832 22.1662 3.624C21.9262 3.416 21.6222 3.248 21.2542 3.12C20.9022 2.992 20.4942 2.928 20.0302 2.928C19.5502 2.928 19.1102 3 18.7102 3.144C18.3262 3.272 17.9822 3.44 17.6782 3.648C17.3742 3.84 17.1102 4.048 16.8862 4.272C16.6622 4.496 16.4782 4.696 16.3342 4.872L14.9662 3.336C15.0942 3.192 15.3102 3 15.6142 2.76C15.9182 2.504 16.3022 2.248 16.7662 1.992C17.2302 1.736 17.7662 1.52 18.3742 1.344C18.9822 1.152 19.6622 1.056 20.4142 1.056C21.1502 1.056 21.8142 1.16 22.4062 1.368C22.9982 1.56 23.4942 1.832 23.8942 2.184C24.3102 2.536 24.6302 2.952 24.8542 3.432C25.0782 3.896 25.1902 4.392 25.1902 4.92C25.1902 5.544 25.0542 6.088 24.7822 6.552C24.5102 7.016 24.1742 7.424 23.7742 7.776C23.3902 8.128 22.9742 8.432 22.5262 8.688C22.0782 8.928 21.6782 9.136 21.3262 9.312C20.9742 9.488 20.5742 9.704 20.1262 9.96C19.6942 10.2 19.2782 10.48 18.8782 10.8C18.4782 11.104 18.1262 11.448 17.8222 11.832C17.5342 12.216 17.3502 12.632 17.2702 13.08H25.4542V15H14.7742Z" fill="#787878"/>
</svg>
