<svg width="26" height="19" viewBox="0 0 26 19" fill="none" xmlns="http://www.w3.org/2000/svg">
<path d="M12.44 7.968C12.44 9.024 12.288 10 11.984 10.896C11.68 11.776 11.256 12.544 10.712 13.2C10.168 13.84 9.52 14.344 8.768 14.712C8.032 15.064 7.232 15.24 6.368 15.24C5.488 15.24 4.672 15.064 3.92 14.712C3.184 14.344 2.544 13.84 2 13.2C1.472 12.544 1.056 11.776 0.752 10.896C0.448 10 0.296 9.024 0.296 7.968C0.296 6.912 0.448 5.944 0.752 5.064C1.056 4.168 1.472 3.4 2 2.76C2.544 2.104 3.184 1.592 3.92 1.224C4.672 0.856 5.488 0.672 6.368 0.672C7.232 0.672 8.032 0.856 8.768 1.224C9.52 1.592 10.168 2.104 10.712 2.76C11.256 3.4 11.68 4.168 11.984 5.064C12.288 5.944 12.44 6.912 12.44 7.968ZM10.304 7.968C10.304 7.184 10.208 6.464 10.016 5.808C9.824 5.152 9.552 4.592 9.2 4.128C8.848 3.648 8.432 3.28 7.952 3.024C7.472 2.768 6.944 2.64 6.368 2.64C5.776 2.64 5.232 2.768 4.736 3.024C4.256 3.28 3.84 3.648 3.488 4.128C3.152 4.592 2.888 5.152 2.696 5.808C2.504 6.464 2.408 7.184 2.408 7.968C2.408 8.768 2.504 9.496 2.696 10.152C2.888 10.792 3.152 11.344 3.488 11.808C3.84 12.272 4.256 12.632 4.736 12.888C5.232 13.144 5.776 13.272 6.368 13.272C6.944 13.272 7.472 13.144 7.952 12.888C8.432 12.632 8.848 12.272 9.2 11.808C9.552 11.344 9.824 10.792 10.016 10.152C10.208 9.496 10.304 8.768 10.304 7.968ZM22.3342 9.336C23.3582 9.512 24.1662 9.984 24.7582 10.752C25.3662 11.52 25.6702 12.472 25.6702 13.608C25.6702 14.344 25.5342 15.016 25.2622 15.624C24.9902 16.232 24.5982 16.752 24.0862 17.184C23.5902 17.616 22.9902 17.944 22.2862 18.168C21.5822 18.408 20.7982 18.528 19.9342 18.528C18.7182 18.528 17.6462 18.296 16.7182 17.832C15.8062 17.384 15.0942 16.744 14.5822 15.912L15.9982 14.496C16.3662 15.152 16.8622 15.664 17.4862 16.032C18.1102 16.416 18.9262 16.608 19.9342 16.608C21.0382 16.608 21.9022 16.36 22.5262 15.864C23.1662 15.368 23.4862 14.616 23.4862 13.608C23.4862 12.6 23.1422 11.8 22.4542 11.208C21.7822 10.6 20.7982 10.296 19.5022 10.296H18.8782V8.52H19.5502C20.7022 8.52 21.5822 8.248 22.1902 7.704C22.8142 7.144 23.1262 6.44 23.1262 5.592C23.1262 4.744 22.8302 4.112 22.2382 3.696C21.6462 3.28 20.9022 3.072 20.0062 3.072C19.1262 3.072 18.3502 3.264 17.6782 3.648C17.0222 4.016 16.5102 4.536 16.1422 5.208L14.8462 3.864C15.0542 3.464 15.3342 3.104 15.6862 2.784C16.0542 2.448 16.4702 2.16 16.9342 1.92C17.4142 1.68 17.9262 1.496 18.4702 1.368C19.0302 1.24 19.6142 1.176 20.2222 1.176C20.9742 1.176 21.6622 1.28 22.2862 1.488C22.9262 1.696 23.4702 1.984 23.9182 2.352C24.3822 2.72 24.7342 3.168 24.9742 3.696C25.2302 4.224 25.3582 4.808 25.3582 5.448C25.3582 5.928 25.2862 6.384 25.1422 6.816C25.0142 7.248 24.8142 7.64 24.5422 7.992C24.2862 8.344 23.9662 8.64 23.5822 8.88C23.2142 9.104 22.7982 9.256 22.3342 9.336Z" fill="#787878"/>
</svg>
