<svg width="27" height="19" viewBox="0 0 27 19" fill="none" xmlns="http://www.w3.org/2000/svg">
<path d="M12.44 7.968C12.44 9.024 12.288 10 11.984 10.896C11.68 11.776 11.256 12.544 10.712 13.2C10.168 13.84 9.52 14.344 8.768 14.712C8.032 15.064 7.232 15.24 6.368 15.24C5.488 15.24 4.672 15.064 3.92 14.712C3.184 14.344 2.544 13.84 2 13.2C1.472 12.544 1.056 11.776 0.752 10.896C0.448 10 0.296 9.024 0.296 7.968C0.296 6.912 0.448 5.944 0.752 5.064C1.056 4.168 1.472 3.4 2 2.76C2.544 2.104 3.184 1.592 3.92 1.224C4.672 0.856 5.488 0.672 6.368 0.672C7.232 0.672 8.032 0.856 8.768 1.224C9.52 1.592 10.168 2.104 10.712 2.76C11.256 3.4 11.68 4.168 11.984 5.064C12.288 5.944 12.44 6.912 12.44 7.968ZM10.304 7.968C10.304 7.184 10.208 6.464 10.016 5.808C9.824 5.152 9.552 4.592 9.2 4.128C8.848 3.648 8.432 3.28 7.952 3.024C7.472 2.768 6.944 2.64 6.368 2.64C5.776 2.64 5.232 2.768 4.736 3.024C4.256 3.28 3.84 3.648 3.488 4.128C3.152 4.592 2.888 5.152 2.696 5.808C2.504 6.464 2.408 7.184 2.408 7.968C2.408 8.768 2.504 9.496 2.696 10.152C2.888 10.792 3.152 11.344 3.488 11.808C3.84 12.272 4.256 12.632 4.736 12.888C5.232 13.144 5.776 13.272 6.368 13.272C6.944 13.272 7.472 13.144 7.952 12.888C8.432 12.632 8.848 12.272 9.2 11.808C9.552 11.344 9.824 10.792 10.016 10.152C10.208 9.496 10.304 8.768 10.304 7.968ZM20.4862 7.464C21.2702 7.464 21.9982 7.6 22.6702 7.872C23.3582 8.128 23.9502 8.496 24.4462 8.976C24.9422 9.456 25.3342 10.032 25.6222 10.704C25.9102 11.376 26.0542 12.112 26.0542 12.912C26.0542 13.76 25.8942 14.528 25.5742 15.216C25.2702 15.92 24.8462 16.52 24.3022 17.016C23.7582 17.512 23.1182 17.896 22.3822 18.168C21.6462 18.44 20.8622 18.576 20.0302 18.576C18.8142 18.576 17.7182 18.288 16.7422 17.712C15.7662 17.136 15.0302 16.368 14.5342 15.408L15.8542 14.256C16.3022 14.992 16.8942 15.584 17.6302 16.032C18.3822 16.48 19.1902 16.704 20.0542 16.704C20.5982 16.704 21.1022 16.608 21.5662 16.416C22.0462 16.24 22.4542 15.984 22.7902 15.648C23.1422 15.328 23.4142 14.936 23.6062 14.472C23.7982 14.008 23.8942 13.496 23.8942 12.936C23.8942 12.408 23.7982 11.92 23.6062 11.472C23.4142 11.024 23.1502 10.64 22.8142 10.32C22.4942 10 22.1102 9.752 21.6622 9.576C21.2142 9.4 20.7342 9.312 20.2222 9.312C19.5342 9.312 18.8862 9.464 18.2782 9.768C17.6862 10.072 17.1982 10.504 16.8142 11.064H14.9182C14.9342 10.984 14.9742 10.784 15.0382 10.464C15.1022 10.128 15.1822 9.728 15.2782 9.264C15.3742 8.784 15.4782 8.256 15.5902 7.68C15.7022 7.104 15.8142 6.52 15.9262 5.928C16.1982 4.552 16.5022 3.008 16.8382 1.296H25.1182V3.24H18.3982L17.3662 8.664C17.7182 8.296 18.1582 8.008 18.6862 7.8C19.2142 7.576 19.8142 7.464 20.4862 7.464Z" fill="#2C2C32"/>
</svg>
