<svg width="28" height="19" viewBox="0 0 28 19" fill="none" xmlns="http://www.w3.org/2000/svg">
<path d="M12.44 10.968C12.44 12.024 12.288 13 11.984 13.896C11.68 14.776 11.256 15.544 10.712 16.2C10.168 16.84 9.52 17.344 8.768 17.712C8.032 18.064 7.232 18.24 6.368 18.24C5.488 18.24 4.672 18.064 3.92 17.712C3.184 17.344 2.544 16.84 2 16.2C1.472 15.544 1.056 14.776 0.752 13.896C0.448 13 0.296 12.024 0.296 10.968C0.296 9.912 0.448 8.944 0.752 8.064C1.056 7.168 1.472 6.4 2 5.76C2.544 5.104 3.184 4.592 3.92 4.224C4.672 3.856 5.488 3.672 6.368 3.672C7.232 3.672 8.032 3.856 8.768 4.224C9.52 4.592 10.168 5.104 10.712 5.76C11.256 6.4 11.68 7.168 11.984 8.064C12.288 8.944 12.44 9.912 12.44 10.968ZM10.304 10.968C10.304 10.184 10.208 9.464 10.016 8.808C9.824 8.152 9.552 7.592 9.2 7.128C8.848 6.648 8.432 6.28 7.952 6.024C7.472 5.768 6.944 5.64 6.368 5.64C5.776 5.64 5.232 5.768 4.736 6.024C4.256 6.28 3.84 6.648 3.488 7.128C3.152 7.592 2.888 8.152 2.696 8.808C2.504 9.464 2.408 10.184 2.408 10.968C2.408 11.768 2.504 12.496 2.696 13.152C2.888 13.792 3.152 14.344 3.488 14.808C3.84 15.272 4.256 15.632 4.736 15.888C5.232 16.144 5.776 16.272 6.368 16.272C6.944 16.272 7.472 16.144 7.952 15.888C8.432 15.632 8.848 15.272 9.2 14.808C9.552 14.344 9.824 13.792 10.016 13.152C10.208 12.496 10.304 11.768 10.304 10.968ZM27.2302 12.36C27.2302 13.176 27.0702 13.944 26.7502 14.664C26.4462 15.368 26.0142 15.992 25.4542 16.536C24.9102 17.064 24.2702 17.48 23.5342 17.784C22.7982 18.088 21.9982 18.24 21.1342 18.24C20.2222 18.24 19.3822 18.072 18.6142 17.736C17.8622 17.4 17.2142 16.92 16.6702 16.296C16.1262 15.656 15.7022 14.888 15.3982 13.992C15.1102 13.08 14.9662 12.048 14.9662 10.896C14.9662 9.216 15.1182 7.752 15.4222 6.504C15.7262 5.24 16.1582 4.192 16.7182 3.36C17.2782 2.512 17.9502 1.88 18.7342 1.464C19.5182 1.048 20.3902 0.839999 21.3502 0.839999C22.4542 0.839999 23.4542 1.104 24.3502 1.632C25.2622 2.16 25.9742 2.904 26.4862 3.864L25.1902 5.136C24.8382 4.384 24.3182 3.792 23.6302 3.36C22.9422 2.912 22.1742 2.688 21.3262 2.688C20.6702 2.688 20.0782 2.84 19.5502 3.144C19.0222 3.432 18.5662 3.864 18.1822 4.44C17.7982 5.016 17.5022 5.72 17.2942 6.552C17.0862 7.368 16.9742 8.304 16.9582 9.36C17.3102 8.528 17.8782 7.864 18.6622 7.368C19.4462 6.872 20.3422 6.624 21.3502 6.624C22.1662 6.624 22.9342 6.776 23.6542 7.08C24.3742 7.368 24.9982 7.776 25.5262 8.304C26.0542 8.816 26.4702 9.424 26.7742 10.128C27.0782 10.816 27.2302 11.56 27.2302 12.36ZM21.1582 16.416C21.7022 16.416 22.2222 16.312 22.7182 16.104C23.2142 15.88 23.6462 15.584 24.0142 15.216C24.3822 14.848 24.6702 14.424 24.8782 13.944C25.1022 13.448 25.2142 12.92 25.2142 12.36C25.2142 11.816 25.1022 11.296 24.8782 10.8C24.6702 10.304 24.3822 9.88 24.0142 9.528C23.6462 9.16 23.2142 8.872 22.7182 8.664C22.2222 8.44 21.7022 8.328 21.1582 8.328C20.5982 8.328 20.0702 8.44 19.5742 8.664C19.0942 8.872 18.6702 9.16 18.3022 9.528C17.9342 9.88 17.6382 10.304 17.4142 10.8C17.2062 11.296 17.1022 11.816 17.1022 12.36C17.1022 12.92 17.2062 13.448 17.4142 13.944C17.6382 14.424 17.9342 14.848 18.3022 15.216C18.6702 15.584 19.0942 15.88 19.5742 16.104C20.0702 16.312 20.5982 16.416 21.1582 16.416Z" fill="#787878"/>
</svg>
