<svg width="27" height="19" viewBox="0 0 27 19" fill="none" xmlns="http://www.w3.org/2000/svg">
<path d="M12.44 7.968C12.44 9.024 12.288 10 11.984 10.896C11.68 11.776 11.256 12.544 10.712 13.2C10.168 13.84 9.52 14.344 8.768 14.712C8.032 15.064 7.232 15.24 6.368 15.24C5.488 15.24 4.672 15.064 3.92 14.712C3.184 14.344 2.544 13.84 2 13.2C1.472 12.544 1.056 11.776 0.752 10.896C0.448 10 0.296 9.024 0.296 7.968C0.296 6.912 0.448 5.944 0.752 5.064C1.056 4.168 1.472 3.4 2 2.76C2.544 2.104 3.184 1.592 3.92 1.224C4.672 0.856 5.488 0.672 6.368 0.672C7.232 0.672 8.032 0.856 8.768 1.224C9.52 1.592 10.168 2.104 10.712 2.76C11.256 3.4 11.68 4.168 11.984 5.064C12.288 5.944 12.44 6.912 12.44 7.968ZM10.304 7.968C10.304 7.184 10.208 6.464 10.016 5.808C9.824 5.152 9.552 4.592 9.2 4.128C8.848 3.648 8.432 3.28 7.952 3.024C7.472 2.768 6.944 2.64 6.368 2.64C5.776 2.64 5.232 2.768 4.736 3.024C4.256 3.28 3.84 3.648 3.488 4.128C3.152 4.592 2.888 5.152 2.696 5.808C2.504 6.464 2.408 7.184 2.408 7.968C2.408 8.768 2.504 9.496 2.696 10.152C2.888 10.792 3.152 11.344 3.488 11.808C3.84 12.272 4.256 12.632 4.736 12.888C5.232 13.144 5.776 13.272 6.368 13.272C6.944 13.272 7.472 13.144 7.952 12.888C8.432 12.632 8.848 12.272 9.2 11.808C9.552 11.344 9.824 10.792 10.016 10.152C10.208 9.496 10.304 8.768 10.304 7.968ZM23.1502 2.952H14.3902V1.008H26.4862L17.9182 18.048H15.5182L23.1502 2.952Z" fill="#787878"/>
</svg>
