<svg width="27" height="19" viewBox="0 0 27 19" fill="none" xmlns="http://www.w3.org/2000/svg">
<path d="M12.44 10.968C12.44 12.024 12.288 13 11.984 13.896C11.68 14.776 11.256 15.544 10.712 16.2C10.168 16.84 9.52 17.344 8.768 17.712C8.032 18.064 7.232 18.24 6.368 18.24C5.488 18.24 4.672 18.064 3.92 17.712C3.184 17.344 2.544 16.84 2 16.2C1.472 15.544 1.056 14.776 0.752 13.896C0.448 13 0.296 12.024 0.296 10.968C0.296 9.912 0.448 8.944 0.752 8.064C1.056 7.168 1.472 6.4 2 5.76C2.544 5.104 3.184 4.592 3.92 4.224C4.672 3.856 5.488 3.672 6.368 3.672C7.232 3.672 8.032 3.856 8.768 4.224C9.52 4.592 10.168 5.104 10.712 5.76C11.256 6.4 11.68 7.168 11.984 8.064C12.288 8.944 12.44 9.912 12.44 10.968ZM10.304 10.968C10.304 10.184 10.208 9.464 10.016 8.808C9.824 8.152 9.552 7.592 9.2 7.128C8.848 6.648 8.432 6.28 7.952 6.024C7.472 5.768 6.944 5.64 6.368 5.64C5.776 5.64 5.232 5.768 4.736 6.024C4.256 6.28 3.84 6.648 3.488 7.128C3.152 7.592 2.888 8.152 2.696 8.808C2.504 9.464 2.408 10.184 2.408 10.968C2.408 11.768 2.504 12.496 2.696 13.152C2.888 13.792 3.152 14.344 3.488 14.808C3.84 15.272 4.256 15.632 4.736 15.888C5.232 16.144 5.776 16.272 6.368 16.272C6.944 16.272 7.472 16.144 7.952 15.888C8.432 15.632 8.848 15.272 9.2 14.808C9.552 14.344 9.824 13.792 10.016 13.152C10.208 12.496 10.304 11.768 10.304 10.968ZM26.9182 13.176C26.9182 13.944 26.7502 14.64 26.4142 15.264C26.0942 15.872 25.6542 16.392 25.0942 16.824C24.5502 17.256 23.9102 17.592 23.1742 17.832C22.4542 18.072 21.6862 18.192 20.8702 18.192C20.0222 18.192 19.2302 18.064 18.4942 17.808C17.7742 17.536 17.1502 17.176 16.6222 16.728C16.0942 16.264 15.6782 15.72 15.3742 15.096C15.0702 14.472 14.9182 13.8 14.9182 13.08C14.9182 12.552 15.0142 12.064 15.2062 11.616C15.3982 11.168 15.6382 10.768 15.9262 10.416C16.2302 10.064 16.5742 9.76 16.9582 9.504C17.3422 9.232 17.7262 9.024 18.1102 8.88C17.7582 8.736 17.4222 8.552 17.1022 8.328C16.7822 8.088 16.5022 7.824 16.2622 7.536C16.0222 7.232 15.8302 6.904 15.6862 6.552C15.5582 6.2 15.4942 5.824 15.4942 5.424C15.4942 4.704 15.6542 4.072 15.9742 3.528C16.3102 2.968 16.7342 2.496 17.2462 2.112C17.7742 1.728 18.3582 1.44 18.9982 1.248C19.6382 1.056 20.2782 0.959999 20.9182 0.959999C21.5582 0.959999 22.1982 1.056 22.8382 1.248C23.4942 1.44 24.0782 1.728 24.5902 2.112C25.1182 2.48 25.5422 2.944 25.8622 3.504C26.1982 4.048 26.3662 4.68 26.3662 5.4C26.3662 6.2 26.1022 6.904 25.5742 7.512C25.0462 8.12 24.4222 8.576 23.7022 8.88C24.1342 9.056 24.5422 9.28 24.9262 9.552C25.3262 9.824 25.6702 10.144 25.9582 10.512C26.2462 10.864 26.4782 11.264 26.6542 11.712C26.8302 12.16 26.9182 12.648 26.9182 13.176ZM24.7822 13.032C24.7822 12.52 24.6622 12.064 24.4222 11.664C24.1982 11.248 23.9022 10.904 23.5342 10.632C23.1662 10.344 22.7502 10.128 22.2862 9.984C21.8222 9.84 21.3582 9.768 20.8942 9.768C20.4142 9.768 19.9422 9.848 19.4782 10.008C19.0302 10.152 18.6222 10.368 18.2542 10.656C17.9022 10.944 17.6142 11.296 17.3902 11.712C17.1822 12.112 17.0782 12.56 17.0782 13.056C17.0782 13.568 17.1902 14.024 17.4142 14.424C17.6542 14.824 17.9582 15.16 18.3262 15.432C18.6942 15.704 19.1022 15.92 19.5502 16.08C20.0142 16.224 20.4782 16.296 20.9422 16.296C21.4222 16.296 21.8862 16.216 22.3342 16.056C22.7982 15.896 23.2062 15.672 23.5582 15.384C23.9262 15.096 24.2222 14.752 24.4462 14.352C24.6702 13.952 24.7822 13.512 24.7822 13.032ZM17.6302 5.496C17.6302 5.928 17.7262 6.312 17.9182 6.648C18.1262 6.968 18.3902 7.24 18.7102 7.464C19.0302 7.688 19.3822 7.856 19.7662 7.968C20.1502 8.08 20.5342 8.136 20.9182 8.136C21.3022 8.136 21.6862 8.08 22.0702 7.968C22.4542 7.84 22.8062 7.664 23.1262 7.44C23.4462 7.216 23.7022 6.936 23.8942 6.6C24.1022 6.264 24.2062 5.88 24.2062 5.448C24.2062 5.048 24.1102 4.688 23.9182 4.368C23.7422 4.048 23.5022 3.776 23.1982 3.552C22.8942 3.328 22.5422 3.16 22.1422 3.048C21.7422 2.92 21.3262 2.856 20.8942 2.856C20.4622 2.856 20.0462 2.92 19.6462 3.048C19.2622 3.16 18.9182 3.336 18.6142 3.576C18.3262 3.8 18.0862 4.08 17.8942 4.416C17.7182 4.736 17.6302 5.096 17.6302 5.496Z" fill="#787878"/>
</svg>
