<svg width="27" height="19" viewBox="0 0 27 19" fill="none" xmlns="http://www.w3.org/2000/svg">
<path d="M12.44 7.968C12.44 9.024 12.288 10 11.984 10.896C11.68 11.776 11.256 12.544 10.712 13.2C10.168 13.84 9.52 14.344 8.768 14.712C8.032 15.064 7.232 15.24 6.368 15.24C5.488 15.24 4.672 15.064 3.92 14.712C3.184 14.344 2.544 13.84 2 13.2C1.472 12.544 1.056 11.776 0.752 10.896C0.448 10 0.296 9.024 0.296 7.968C0.296 6.912 0.448 5.944 0.752 5.064C1.056 4.168 1.472 3.4 2 2.76C2.544 2.104 3.184 1.592 3.92 1.224C4.672 0.856 5.488 0.672 6.368 0.672C7.232 0.672 8.032 0.856 8.768 1.224C9.52 1.592 10.168 2.104 10.712 2.76C11.256 3.4 11.68 4.168 11.984 5.064C12.288 5.944 12.44 6.912 12.44 7.968ZM10.304 7.968C10.304 7.184 10.208 6.464 10.016 5.808C9.824 5.152 9.552 4.592 9.2 4.128C8.848 3.648 8.432 3.28 7.952 3.024C7.472 2.768 6.944 2.64 6.368 2.64C5.776 2.64 5.232 2.768 4.736 3.024C4.256 3.28 3.84 3.648 3.488 4.128C3.152 4.592 2.888 5.152 2.696 5.808C2.504 6.464 2.408 7.184 2.408 7.968C2.408 8.768 2.504 9.496 2.696 10.152C2.888 10.792 3.152 11.344 3.488 11.808C3.84 12.272 4.256 12.632 4.736 12.888C5.232 13.144 5.776 13.272 6.368 13.272C6.944 13.272 7.472 13.144 7.952 12.888C8.432 12.632 8.848 12.272 9.2 11.808C9.552 11.344 9.824 10.792 10.016 10.152C10.208 9.496 10.304 8.768 10.304 7.968ZM14.6062 7.176C14.6062 6.36 14.7582 5.6 15.0622 4.896C15.3822 4.176 15.8142 3.552 16.3582 3.024C16.9182 2.48 17.5662 2.056 18.3022 1.752C19.0382 1.448 19.8382 1.296 20.7022 1.296C21.6142 1.296 22.4462 1.464 23.1982 1.8C23.9662 2.136 24.6222 2.624 25.1662 3.264C25.7102 3.888 26.1262 4.656 26.4142 5.568C26.7182 6.464 26.8702 7.488 26.8702 8.64C26.8702 10.32 26.7182 11.792 26.4142 13.056C26.1102 14.304 25.6782 15.344 25.1182 16.176C24.5582 17.024 23.8862 17.656 23.1022 18.072C22.3182 18.488 21.4462 18.696 20.4862 18.696C19.3822 18.696 18.3742 18.432 17.4622 17.904C16.5662 17.376 15.8622 16.632 15.3502 15.672L16.6462 14.4C16.9982 15.152 17.5182 15.744 18.2062 16.176C18.8942 16.624 19.6622 16.848 20.5102 16.848C21.8222 16.848 22.8702 16.264 23.6542 15.096C24.4382 13.928 24.8462 12.288 24.8782 10.176C24.5262 11.008 23.9582 11.672 23.1742 12.168C22.3902 12.664 21.4942 12.912 20.4862 12.912C19.6702 12.912 18.9022 12.768 18.1822 12.48C17.4622 12.176 16.8382 11.768 16.3102 11.256C15.7822 10.744 15.3662 10.136 15.0622 9.432C14.7582 8.728 14.6062 7.976 14.6062 7.176ZM20.6782 3.12C20.1182 3.12 19.5902 3.232 19.0942 3.456C18.6142 3.664 18.1902 3.952 17.8222 4.32C17.4542 4.688 17.1582 5.12 16.9342 5.616C16.7262 6.096 16.6222 6.616 16.6222 7.176C16.6222 7.736 16.7262 8.264 16.9342 8.76C17.1582 9.24 17.4542 9.664 17.8222 10.032C18.1902 10.384 18.6142 10.672 19.0942 10.896C19.5902 11.104 20.1182 11.208 20.6782 11.208C21.2382 11.208 21.7582 11.104 22.2382 10.896C22.7342 10.672 23.1662 10.384 23.5342 10.032C23.9022 9.664 24.1902 9.24 24.3982 8.76C24.6222 8.264 24.7342 7.736 24.7342 7.176C24.7342 6.632 24.6222 6.112 24.3982 5.616C24.1902 5.12 23.9022 4.688 23.5342 4.32C23.1662 3.952 22.7342 3.664 22.2382 3.456C21.7422 3.232 21.2222 3.12 20.6782 3.12Z" fill="#787878"/>
</svg>
