<svg width="24" height="16" viewBox="0 0 24 16" fill="none" xmlns="http://www.w3.org/2000/svg">
<path d="M9.224 13.08V15H0.608V13.08H4.016V3.72C3.872 3.912 3.648 4.12 3.344 4.344C3.04 4.552 2.696 4.752 2.312 4.944C1.944 5.12 1.56 5.272 1.16 5.4C0.76 5.528 0.408 5.592 0.104 5.592V3.576C0.456 3.576 0.848 3.48 1.28 3.288C1.712 3.08 2.12 2.848 2.504 2.592C2.904 2.32 3.24 2.064 3.512 1.824C3.8 1.568 3.968 1.392 4.016 1.296H6.176V13.08H9.224ZM23.2447 7.968C23.2447 9.024 23.0927 10 22.7887 10.896C22.4847 11.776 22.0607 12.544 21.5167 13.2C20.9727 13.84 20.3247 14.344 19.5727 14.712C18.8367 15.064 18.0367 15.24 17.1727 15.24C16.2927 15.24 15.4767 15.064 14.7247 14.712C13.9887 14.344 13.3487 13.84 12.8047 13.2C12.2767 12.544 11.8607 11.776 11.5567 10.896C11.2527 10 11.1007 9.024 11.1007 7.968C11.1007 6.912 11.2527 5.944 11.5567 5.064C11.8607 4.168 12.2767 3.4 12.8047 2.76C13.3487 2.104 13.9887 1.592 14.7247 1.224C15.4767 0.856 16.2927 0.672 17.1727 0.672C18.0367 0.672 18.8367 0.856 19.5727 1.224C20.3247 1.592 20.9727 2.104 21.5167 2.76C22.0607 3.4 22.4847 4.168 22.7887 5.064C23.0927 5.944 23.2447 6.912 23.2447 7.968ZM21.1087 7.968C21.1087 7.184 21.0127 6.464 20.8207 5.808C20.6287 5.152 20.3567 4.592 20.0047 4.128C19.6527 3.648 19.2367 3.28 18.7567 3.024C18.2767 2.768 17.7487 2.64 17.1727 2.64C16.5807 2.64 16.0367 2.768 15.5407 3.024C15.0607 3.28 14.6447 3.648 14.2927 4.128C13.9567 4.592 13.6927 5.152 13.5007 5.808C13.3087 6.464 13.2127 7.184 13.2127 7.968C13.2127 8.768 13.3087 9.496 13.5007 10.152C13.6927 10.792 13.9567 11.344 14.2927 11.808C14.6447 12.272 15.0607 12.632 15.5407 12.888C16.0367 13.144 16.5807 13.272 17.1727 13.272C17.7487 13.272 18.2767 13.144 18.7567 12.888C19.2367 12.632 19.6527 12.272 20.0047 11.808C20.3567 11.344 20.6287 10.792 20.8207 10.152C21.0127 9.496 21.1087 8.768 21.1087 7.968Z" fill="#787878"/>
</svg>
